# xmcd
#
# Track frame offsets:
#  150
#  15025
#  29812
#  46422
#  64367
#  78392
#  94955
#  108762
#  125872
#  138407
#  150050
#  159667
#
# Disc length: 2468 seconds
#
# Revision: 0
# Processed by: cddbd v1.4PL0 Copyright (c) Steve Scherf et al.
# Submitted via: AltoMP3_Maker 3.0
#
DISCID=9509a20c
DTITLE=KK and Magnús Eiríksson - Ómissandi fólk
DYEAR=1900
DGENRE=
TTITLE0=Óbyggðirnar kalla
TTITLE1=Addi amfetamín
TTITLE2=Kakan
TTITLE3=Steiktur engill
TTITLE4=Vindur
TTITLE5=Leynigluggagægir
TTITLE6=Apótek
TTITLE7=Ópið
TTITLE8=Foldarkráin
TTITLE9=Lifa, elska, njóta
TTITLE10=Ég átti eina ást
TTITLE11=Ómissandi fólk
EXTD=
EXTT0=
EXTT1=
EXTT2=
EXTT3=
EXTT4=
EXTT5=
EXTT6=
EXTT7=
EXTT8=
EXTT9=
EXTT10=
EXTT11=
PLAYORDER=
